<svg width="21" height="20" viewBox="0 0 21 20" fill="black" xmlns="http://www.w3.org/2000/svg">
<path d="M10.5 0.0957031C11.1016 0.0957031 11.6745 0.224609 12.2188 0.482422C12.7773 0.740234 13.2894 1.09831 13.7549 1.55664C14.2204 2.01497 14.625 2.55924 14.9688 3.18945C15.3268 3.83398 15.6061 4.53581 15.8066 5.29492H16.709C17.4108 5.29492 17.9622 5.44173 18.3633 5.73535C18.7643 6.02897 19.0436 6.5625 19.2012 7.33594L20.8984 17.7988C20.8984 18.3574 20.6872 18.848 20.2646 19.2705C19.8421 19.693 19.3516 19.9043 18.793 19.9043H2.20703C1.60547 19.9043 1.10417 19.6966 0.703125 19.2812C0.302083 18.8659 0.101562 18.3503 0.101562 17.7344L1.79883 7.31445C1.95638 6.56966 2.24642 6.04688 2.66895 5.74609C3.09147 5.44531 3.66797 5.29492 4.39844 5.29492H5.19336C5.39388 4.53581 5.67318 3.83398 6.03125 3.18945C6.375 2.55924 6.77962 2.01497 7.24512 1.55664C7.71061 1.09831 8.22266 0.740234 8.78125 0.482422C9.32552 0.224609 9.89844 0.0957031 10.5 0.0957031ZM4.09766 6.90625C3.91146 6.90625 3.77181 6.94564 3.67871 7.02441C3.58561 7.10319 3.52474 7.25 3.49609 7.46484L1.79883 17.7988C1.79883 17.9421 1.84896 18.0602 1.94922 18.1533C2.04948 18.2464 2.16406 18.293 2.29297 18.293H18.793C18.9362 18.293 19.0579 18.25 19.1582 18.1641C19.2585 18.0781 19.3086 17.9779 19.3086 17.8633L17.5039 7.46484C17.4753 7.25 17.4144 7.10319 17.3213 7.02441C17.2282 6.94564 17.0885 6.90625 16.9023 6.90625H16.1719C16.1719 6.9349 16.1755 6.9707 16.1826 7.01367C16.1898 7.05664 16.1934 7.09245 16.1934 7.12109C16.1934 7.22135 16.1934 7.31803 16.1934 7.41113C16.1934 7.50423 16.1934 7.63672 16.1934 7.80859C16.1934 8.00911 16.1146 8.19173 15.957 8.35645C15.7995 8.52116 15.6133 8.60352 15.3984 8.60352C15.1836 8.60352 14.9974 8.52116 14.8398 8.35645C14.6823 8.19173 14.6035 8.00911 14.6035 7.80859C14.6035 7.65104 14.6035 7.5293 14.6035 7.44336C14.6035 7.35742 14.5964 7.26432 14.582 7.16406C14.582 7.12109 14.582 7.07812 14.582 7.03516C14.582 6.99219 14.5749 6.94922 14.5605 6.90625H6.58984V7.80859C6.58984 7.99479 6.51823 8.16667 6.375 8.32422C6.23177 8.48177 6.0599 8.57487 5.85938 8.60352C5.60156 8.67513 5.37598 8.62858 5.18262 8.46387C4.98926 8.29915 4.89258 8.08073 4.89258 7.80859C4.89258 7.63672 4.89616 7.50423 4.90332 7.41113C4.91048 7.31803 4.91406 7.22135 4.91406 7.12109C4.91406 7.09245 4.91764 7.05664 4.9248 7.01367C4.93197 6.9707 4.93555 6.9349 4.93555 6.90625H4.09766ZM10.5 1.79297C9.76953 1.79297 9.08919 2.09017 8.45898 2.68457C7.82878 3.27897 7.3418 4.07031 6.99805 5.05859L6.93359 5.29492H14.0664L14.002 5.05859C13.6582 4.07031 13.1712 3.27897 12.541 2.68457C11.9108 2.09017 11.2305 1.79297 10.5 1.79297Z" fill="#black"/>
</svg>
