<svg version="1.2" xmlns="http://www.w3.org/2000/svg" viewBox="0 0 28 24" width="28" height="24">
	<title>favicon</title>
	<style>
		.s0 { fill: #131319 } 
		.s1 { fill: #ed6e00 } 
	</style>
	<path fill-rule="evenodd" class="s0" d="m3.5 12.1c0-5 4.1-9.1 9.1-9.1 4.6 0 8.4 3.3 9.1 7.7h-2.6c-0.6-3-3.3-5.2-6.5-5.2-3.7 0-6.6 2.9-6.6 6.6 0 3.6 2.9 6.6 6.6 6.6 3.2 0 5.9-2.2 6.5-5.3h2.6v0.1c-0.7 4.3-4.5 7.7-9.1 7.7-5.1 0-9.1-4.1-9.1-9.1zm15.1 0c0 3.2-2.7 5.9-6 5.9-3.3 0-5.9-2.7-5.9-5.9 0-3.2 2.7-5.9 5.9-5.9 3.3 0 6 2.7 6 5.9zm-2.1 0c0-2.1-1.7-3.8-3.9-3.8-2.1 0-3.9 1.7-3.9 3.8 0 2.1 1.8 3.8 3.9 3.8 2.2 0 3.9-1.7 3.9-3.8z"/>
	<path fill-rule="evenodd" class="s1" d="m12.6 15.2c1.7 0 3.1-1.4 3.1-3.1 0-1.7-1.4-3-3.1-3-1.7 0-3.1 1.4-3.1 3 0 1.7 1.4 3.1 3.1 3.1z"/>
</svg>