<svg width="20" height="18" viewBox="0 0 20 18" fill="black" xmlns="http://www.w3.org/2000/svg">
<path d="M10.7422 1.51953C11.2891 0.998697 11.9075 0.614584 12.5977 0.367188C13.3008 0.119791 14.0072 0.00911522 14.7168 0.0351562C15.4264 0.0611973 16.1133 0.223959 16.7773 0.523438C17.4414 0.822916 18.0273 1.26562 18.5352 1.85156C19.0299 2.39844 19.401 3.01042 19.6484 3.6875C19.8958 4.35156 20.0195 5.02865 20.0195 5.71875C20.0195 6.40885 19.8958 7.08594 19.6484 7.75C19.401 8.41406 19.0299 9.00651 18.5352 9.52734L10.625 17.6328C10.4687 17.8411 10.2604 17.9453 10 17.9453C9.73958 17.9453 9.53125 17.8411 9.375 17.6328L1.46484 9.625C0.944008 9.05208 0.559893 8.40755 0.312497 7.69141C0.0651012 6.98828 -0.0455758 6.27539 -0.0195342 5.55273C0.00650751 4.83008 0.169268 4.13021 0.468747 3.45312C0.768226 2.76302 1.21093 2.15755 1.79687 1.63672C2.31771 1.12891 2.90364 0.751303 3.55468 0.503906C4.20573 0.25651 4.86979 0.132812 5.54687 0.132812C6.22396 0.132812 6.88802 0.25651 7.53906 0.503906C8.20312 0.751303 8.8151 1.12891 9.375 1.63672L10.0977 2.35938C10.0456 2.30729 10.14 2.1543 10.3809 1.90039C10.6217 1.64648 10.7422 1.51953 10.7422 1.51953ZM17.1484 8.57031C17.526 8.20573 17.806 7.78906 17.9883 7.32031C18.1706 6.85156 18.2617 6.36979 18.2617 5.875C18.2617 5.38021 18.1706 4.89193 17.9883 4.41016C17.806 3.94141 17.526 3.50521 17.1484 3.10156C16.4193 2.3724 15.5631 2.00781 14.5801 2.00781C13.597 2.00781 12.7344 2.3724 11.9922 3.10156L10.625 4.46875C10.4687 4.67708 10.2604 4.78125 10 4.78125C9.73958 4.78125 9.53125 4.67708 9.375 4.46875L8.00781 3.10156C7.26562 2.3724 6.40299 2.00781 5.41992 2.00781C4.43685 2.00781 3.58073 2.3724 2.85156 3.10156C2.47396 3.46615 2.19401 3.88281 2.01172 4.35156C1.82942 4.82031 1.73828 5.30208 1.73828 5.79688C1.73828 6.29167 1.82942 6.77995 2.01172 7.26172C2.19401 7.74349 2.47396 8.17969 2.85156 8.57031L10 16.1484L17.1484 8.57031Z" fill="#black"/>
</svg>
