<svg width="16" height="21" viewBox="0 0 16 21" fill="none" xmlns="http://www.w3.org/2000/svg">
<path d="M8.01965 0.725586C7.00793 0.725586 6.04407 0.916992 5.12805 1.2998C4.21204 1.66895 3.41223 2.19189 2.72864 2.86865C2.04504 3.54541 1.505 4.34863 1.10852 5.27832C0.698364 6.22168 0.493286 7.25391 0.493286 8.375C0.493286 9.00391 0.616333 9.68408 0.862427 10.4155C1.10852 11.147 1.45715 11.9297 1.90833 12.7637C2.19543 13.2832 2.52014 13.8164 2.88245 14.3633C3.24475 14.9102 3.63782 15.4639 4.06165 16.0244C4.44446 16.5439 4.83411 17.0464 5.23059 17.5317C5.62708 18.0171 6.0304 18.4922 6.44055 18.957L6.85071 19.4287L7.38391 20.0029L8.01965 20.6592L8.6759 20.0029L9.20911 19.4287L9.61926 18.957C10.0157 18.4922 10.4156 18.0171 10.819 17.5317C11.2223 17.0464 11.6154 16.5439 11.9982 16.0244C12.422 15.4639 12.8116 14.9102 13.1671 14.3633C13.5226 13.8164 13.8439 13.2832 14.131 12.7637C14.5958 11.9297 14.9513 11.147 15.1974 10.4155C15.4435 9.68408 15.5665 9.00391 15.5665 8.375C15.5665 7.25391 15.3615 6.22168 14.9513 5.27832C14.5548 4.34863 14.0114 3.54541 13.3209 2.86865C12.6305 2.19189 11.8341 1.66895 10.9318 1.2998C10.0157 0.916992 9.04504 0.725586 8.01965 0.725586ZM8.01965 2.09961C8.86731 2.09961 9.66028 2.25 10.3986 2.55078C11.1505 2.86523 11.8068 3.29932 12.3673 3.85303C12.9279 4.40674 13.3722 5.06641 13.7003 5.83203C14.0284 6.59766 14.1925 7.44531 14.1925 8.375C14.1925 8.86719 14.0865 9.42773 13.8746 10.0566C13.6627 10.6855 13.3517 11.3691 12.9415 12.1074C12.6681 12.5996 12.3605 13.1055 12.0187 13.625C11.6769 14.1445 11.3077 14.6709 10.9113 15.2041C10.5421 15.6963 10.1627 16.1816 9.77307 16.6602C9.38342 17.1387 8.99036 17.6035 8.59387 18.0547L8.18372 18.5059L8.01965 18.6699L7.8761 18.5059C7.80774 18.4375 7.73938 18.3657 7.67102 18.2905C7.60266 18.2153 7.5343 18.1367 7.46594 18.0547C7.06946 17.6035 6.67639 17.1387 6.28674 16.6602C5.89709 16.1816 5.5177 15.6963 5.14856 15.2041C4.75208 14.6709 4.38293 14.1445 4.04114 13.625C3.69934 13.1055 3.39172 12.5996 3.11829 12.1074C2.70813 11.3691 2.39709 10.6855 2.18518 10.0566C1.97327 9.42773 1.86731 8.86719 1.86731 8.375C1.86731 7.44531 2.03137 6.59766 2.3595 5.83203C2.68762 5.06641 3.13196 4.40674 3.6925 3.85303C4.25305 3.29932 4.9093 2.86523 5.66125 2.55078C6.39954 2.25 7.18567 2.09961 8.01965 2.09961ZM8.01965 5.29883C7.21301 5.29883 6.51917 5.58594 5.93811 6.16016C5.35706 6.73438 5.06653 7.43164 5.06653 8.25195C5.06653 9.07227 5.35364 9.77295 5.92786 10.354C6.50208 10.9351 7.19934 11.2256 8.01965 11.2256C8.83997 11.2256 9.54065 10.9351 10.1217 10.354C10.7028 9.77295 10.9933 9.07227 10.9933 8.25195C10.9933 7.43164 10.7028 6.73438 10.1217 6.16016C9.54065 5.58594 8.83997 5.29883 8.01965 5.29883ZM8.01965 6.67285C8.47083 6.67285 8.85022 6.82666 9.15784 7.13428C9.46545 7.44189 9.61926 7.81445 9.61926 8.25195C9.61926 8.70312 9.46545 9.08252 9.15784 9.39014C8.85022 9.69775 8.47083 9.85156 8.01965 9.85156C7.58215 9.85156 7.20959 9.69775 6.90198 9.39014C6.59436 9.08252 6.44055 8.70312 6.44055 8.25195C6.44055 7.81445 6.59436 7.44189 6.90198 7.13428C7.20959 6.82666 7.58215 6.67285 8.01965 6.67285Z" fill="#917236"/>
</svg>
