<svg width="23" height="23" viewBox="0 0 25 23" fill="black" xmlns="http://www.w3.org/2000/svg">
<path d="M10.2295 20.3135C11.5967 20.3135 12.8825 20.053 14.0869 19.5322C15.3076 19.0114 16.3656 18.2993 17.2607 17.396C18.1559 16.4927 18.8639 15.4388 19.3848 14.2344C19.9056 13.0299 20.166 11.736 20.166 10.3525C20.166 8.98534 19.9056 7.69953 19.3848 6.4951C18.8639 5.29068 18.1559 4.2368 17.2607 3.33348C16.3656 2.43016 15.3076 1.71809 14.0869 1.19725C12.8825 0.676418 11.5967 0.416002 10.2295 0.416002C8.8623 0.416002 7.56836 0.676418 6.34766 1.19725C5.14323 1.71809 4.09342 2.43016 3.19824 3.33348C2.30306 4.2368 1.59505 5.29068 1.07422 6.4951C0.553385 7.69953 0.292969 8.98534 0.292969 10.3525C0.292969 11.736 0.553385 13.0299 1.07422 14.2344C1.59505 15.4388 2.30306 16.4927 3.19824 17.396C4.09342 18.2993 5.14323 19.0114 6.34766 19.5322C7.56836 20.053 8.8623 20.3135 10.2295 20.3135ZM10.2295 18.6045C9.09017 18.6045 8.02409 18.3848 7.03125 17.9453C6.02214 17.5221 5.14323 16.9362 4.39453 16.1875C3.64583 15.4388 3.0599 14.568 2.63672 13.5752C2.19727 12.5661 1.97754 11.4918 1.97754 10.3525C1.97754 9.22948 2.19727 8.1634 2.63672 7.15428C3.0599 6.16145 3.64583 5.29068 4.39453 4.54198C5.14323 3.79328 6.02214 3.20734 7.03125 2.78417C8.02409 2.34471 9.09017 2.12499 10.2295 2.12499C11.3688 2.12499 12.4349 2.34471 13.4277 2.78417C14.4368 3.20734 15.3117 3.79328 16.0522 4.54198C16.7928 5.29068 17.3828 6.16145 17.8223 7.15428C18.2454 8.1634 18.457 9.22948 18.457 10.3525C18.457 11.4918 18.2454 12.5661 17.8223 13.5752C17.3828 14.568 16.7928 15.4388 16.0522 16.1875C15.3117 16.9362 14.4368 17.5221 13.4277 17.9453C12.4349 18.3848 11.3688 18.6045 10.2295 18.6045ZM24.3896 21.0703L18.7256 16.5049C18.5303 16.3584 18.3187 16.3014 18.0908 16.334C17.863 16.3665 17.6676 16.4723 17.5049 16.6514C17.3584 16.8304 17.3014 17.0379 17.334 17.2739C17.3665 17.5099 17.4723 17.7012 17.6514 17.8476L23.3398 22.3887C23.5189 22.5351 23.7264 22.5962 23.9624 22.5718C24.1984 22.5474 24.3896 22.4456 24.5361 22.2666C24.6826 22.0713 24.7437 21.8597 24.7192 21.6318C24.6948 21.404 24.585 21.2168 24.3896 21.0703Z" fill="#black"/>
</svg>
