<svg width="18" height="20" viewBox="0 0 18 20" fill="black" xmlns="http://www.w3.org/2000/svg">
<path d="M9 10.9961C8.24479 10.9961 7.53516 10.8529 6.87109 10.5664C6.20703 10.2669 5.62435 9.86979 5.12305 9.375C4.62174 8.88021 4.22786 8.29427 3.94141 7.61719C3.64193 6.95312 3.49219 6.25 3.49219 5.50781C3.49219 4.7526 3.64193 4.04297 3.94141 3.37891C4.22786 2.71484 4.62174 2.13216 5.12305 1.63086C5.62435 1.12956 6.20703 0.729166 6.87109 0.429688C7.53516 0.143229 8.24479 0 9 0C9.75521 0 10.4648 0.143229 11.1289 0.429688C11.793 0.729166 12.3757 1.12956 12.877 1.63086C13.3783 2.13216 13.7721 2.71484 14.0586 3.37891C14.3581 4.04297 14.5078 4.7526 14.5078 5.50781C14.5078 6.25 14.3581 6.95312 14.0586 7.61719C13.7721 8.29427 13.3783 8.88021 12.877 9.375C12.3757 9.86979 11.793 10.2669 11.1289 10.5664C10.4648 10.8529 9.75521 10.9961 9 10.9961ZM9 1.50391C8.45312 1.50391 7.93229 1.60807 7.4375 1.81641C6.95573 2.02474 6.53581 2.3112 6.17773 2.67578C5.81966 3.04037 5.52995 3.46354 5.30859 3.94531C5.10026 4.42708 4.99609 4.94792 4.99609 5.50781C4.99609 6.05469 5.10026 6.56901 5.30859 7.05078C5.52995 7.53255 5.81966 7.95573 6.17773 8.32031C6.53581 8.6849 6.95573 8.97135 7.4375 9.17969C7.93229 9.38802 8.45312 9.49219 9 9.49219C9.54688 9.49219 10.0677 9.38802 10.5625 9.17969C11.0443 8.97135 11.4642 8.6849 11.8223 8.32031C12.1803 7.95573 12.4701 7.53255 12.6914 7.05078C12.8997 6.56901 13.0039 6.05469 13.0039 5.50781C13.0039 4.94792 12.8997 4.42708 12.6914 3.94531C12.4701 3.46354 12.1803 3.04037 11.8223 2.67578C11.4642 2.3112 11.0443 2.02474 10.5625 1.81641C10.0677 1.60807 9.54688 1.50391 9 1.50391ZM16.793 20H1.20703C0.998698 20 0.829427 19.9349 0.699219 19.8047C0.56901 19.6745 0.503906 19.5052 0.503906 19.2969C0.503906 18.0469 0.731771 16.862 1.1875 15.7422C1.65625 14.6094 2.28125 13.6198 3.0625 12.7734C3.84375 11.9271 4.7487 11.25 5.77734 10.7422C6.80599 10.2474 7.88021 10 9 10C10.1458 10 11.2331 10.2474 12.2617 10.7422C13.2904 11.224 14.1921 11.888 14.9668 12.7344C15.7415 13.5807 16.3568 14.5703 16.8125 15.7031C17.2682 16.8229 17.4961 18.0208 17.4961 19.2969C17.4961 19.5052 17.431 19.6745 17.3008 19.8047C17.1706 19.9349 17.0013 20 16.793 20ZM2.00781 18.4961H16.1094C16.0052 17.5456 15.7448 16.6471 15.3281 15.8008C14.9115 14.9544 14.3874 14.2122 13.7559 13.5742C13.1243 12.9362 12.4115 12.4284 11.6172 12.0508C10.8099 11.6862 9.97005 11.5039 9.09766 11.5039C8.22526 11.5039 7.37891 11.6862 6.55859 12.0508C5.73828 12.4284 5.0026 12.9362 4.35156 13.5742C3.70052 14.2122 3.16667 14.9544 2.75 15.8008C2.32031 16.6471 2.07292 17.5456 2.00781 18.4961Z" fill="#black"/>
</svg>
